<?xml version="1.0" encoding="UTF-8" standalone="no"?>
<svg
   xmlns:dc="http://purl.org/dc/elements/1.1/"
   xmlns:cc="http://creativecommons.org/ns#"
   xmlns:rdf="http://www.w3.org/1999/02/22-rdf-syntax-ns#"
   xmlns:svg="http://www.w3.org/2000/svg"
   xmlns="http://www.w3.org/2000/svg"
   xmlns:sodipodi="http://sodipodi.sourceforge.net/DTD/sodipodi-0.dtd"
   xmlns:inkscape="http://www.inkscape.org/namespaces/inkscape"
   height="24"
   viewBox="0 0 24 24"
   width="24"
   version="1.1"
   id="svg6"
   sodipodi:docname="add_movie.svg"
   inkscape:version="1.0.1 (3bc2e813f5, 2020-09-07)">
  <metadata
     id="metadata12">
    <rdf:RDF>
      <cc:Work
         rdf:about="">
        <dc:format>image/svg+xml</dc:format>
        <dc:type
           rdf:resource="http://purl.org/dc/dcmitype/StillImage" />
        <dc:title></dc:title>
      </cc:Work>
    </rdf:RDF>
  </metadata>
  <defs
     id="defs10" />
  <sodipodi:namedview
     pagecolor="#ffffff"
     bordercolor="#666666"
     borderopacity="1"
     objecttolerance="10"
     gridtolerance="10"
     guidetolerance="10"
     inkscape:pageopacity="0"
     inkscape:pageshadow="2"
     inkscape:window-width="1920"
     inkscape:window-height="1017"
     id="namedview8"
     showgrid="false"
     inkscape:zoom="1.5652103"
     inkscape:cx="10.639654"
     inkscape:cy="99.477963"
     inkscape:window-x="-8"
     inkscape:window-y="-8"
     inkscape:window-maximized="1"
     inkscape:current-layer="svg6" />
  <path
     d="M 0,0 H 24 V 24 H 0 Z"
     fill="none"
     id="path2"
     style="display:none" />
  <path
     id="path4"
     style="display:inline"
     d="M 4 4 C 2.9 4 2.0097656 4.9 2.0097656 6 L 2 18 C 2 19.1 2.9 20 4 20 L 20 20 C 21.1 20 22 19.1 22 18 L 22 4 L 18 4 L 19.388672 6.7773438 L 16.388672 6.7773438 L 15 4 L 13 4 L 14.388672 6.7773438 L 11.388672 6.7773438 L 10 4 L 8 4 L 9.3886719 6.7773438 L 6.3886719 6.7773438 L 5 4 L 4 4 z M 14 9 L 16 9 L 16 12 L 19 12 L 19 14 L 16 14 L 16 17 L 14 17 L 14 14 L 11 14 L 11 12 L 14 12 L 14 9 z " />
</svg>
